# xmcd
# 
# Track frame offsets:
#     182
#     17985
#     32810
#     42267
#     59655
#     77477
#     87160
#     96812
#     116015
#     133090
#     146102
#     161495
#     180782
#     200960
# 
# Disc length: 2756
# 
# Revision: 0
# Processed by: cddbd v1.5.2PL0 Copyright (c) Steve Scherf et al.
# Submitted via: BonkEnc v1.0.6
# 
DISCID=c10ac20e
DTITLE=Cedell Davis - Feel Like Doin' Something Wrong
DYEAR=0
DGENRE=Blues
TTITLE0=I don't know why
TTITLE1=Every day every way
TTITLE2=She's got the devil in her
TTITLE3=Boogie chillen
TTITLE4=Baby, I love you so
TTITLE5=If you like fat women
TTITLE6=Guitar boogie
TTITLE7=Falling rain blues
TTITLE8=In the evening
TTITLE9=Sit down on my knee
TTITLE10=Got to be moving on
TTITLE11=So long
TTITLE12=Murder my baby
TTITLE13=Green onions
EXTD=
EXTT0=
EXTT1=
EXTT2=
EXTT3=
EXTT4=
EXTT5=
EXTT6=
EXTT7=
EXTT8=
EXTT9=
EXTT10=
EXTT11=
EXTT12=
EXTT13=
PLAYORDER=
